<svg width="25" height="24" viewBox="0 0 25 24" fill="none" xmlns="http://www.w3.org/2000/svg">
<path d="M22.3359 5.90701C21.5863 6.23439 20.7924 6.44905 19.9799 6.54401C20.8327 6.04324 21.474 5.24912 21.7839 4.31001C20.9759 4.78034 20.0947 5.11161 19.1769 5.29001C18.7905 4.88522 18.3256 4.5634 17.8107 4.34419C17.2958 4.12498 16.7416 4.01298 16.1819 4.01501C13.9159 4.01501 12.0789 5.82501 12.0789 8.05501C12.0789 8.37101 12.1149 8.68001 12.1849 8.97501C10.5595 8.89771 8.96805 8.48242 7.51211 7.75565C6.05616 7.02888 4.7677 6.00659 3.72894 4.75401C3.36476 5.36841 3.17335 6.06979 3.17494 6.78401C3.17563 7.45198 3.34277 8.10924 3.66123 8.6964C3.97969 9.28357 4.43944 9.78212 4.99894 10.147C4.34842 10.126 3.71196 9.95234 3.14094 9.64001V9.69001C3.14094 11.648 4.55594 13.281 6.43094 13.653C6.07855 13.7465 5.71552 13.7939 5.35094 13.794C5.08594 13.794 4.82894 13.769 4.57794 13.719C4.84602 14.5269 5.35904 15.2313 6.04576 15.7344C6.73247 16.2374 7.55878 16.5141 8.40994 16.526C6.95001 17.6506 5.15776 18.2581 3.31494 18.253C2.98294 18.253 2.65694 18.233 2.33594 18.197C4.21719 19.3877 6.39853 20.0183 8.62494 20.015C16.1719 20.015 20.2979 13.858 20.2979 8.51901L20.2839 7.99601C21.0888 7.42968 21.7841 6.72186 22.3359 5.90701Z" fill="#E2E8F0"/>
</svg>
