<svg width="25" height="24" viewBox="0 0 25 24" fill="none" xmlns="http://www.w3.org/2000/svg">
<path d="M16.2526 10.657L12.3026 6.707C12.1205 6.51839 12.0197 6.26579 12.022 6.00359C12.0242 5.7414 12.1294 5.49058 12.3148 5.30518C12.5002 5.11977 12.751 5.0146 13.0132 5.01232C13.2754 5.01004 13.528 5.11084 13.7166 5.293L19.3736 10.95C19.4668 11.0426 19.5408 11.1528 19.5912 11.2741C19.6417 11.3955 19.6677 11.5256 19.6677 11.657C19.6677 11.7884 19.6417 11.9185 19.5912 12.0398C19.5408 12.1612 19.4668 12.2713 19.3736 12.364L13.7166 18.021C13.6244 18.1165 13.514 18.1927 13.392 18.2451C13.27 18.2975 13.1388 18.3251 13.006 18.3262C12.8732 18.3274 12.7416 18.3021 12.6187 18.2518C12.4958 18.2015 12.3841 18.1273 12.2902 18.0334C12.1963 17.9395 12.1221 17.8278 12.0718 17.7049C12.0215 17.5821 11.9962 17.4504 11.9974 17.3176C11.9985 17.1848 12.0261 17.0536 12.0785 16.9316C12.1309 16.8096 12.2071 16.6992 12.3026 16.607L16.2526 12.657H6.66663C6.40141 12.657 6.14706 12.5516 5.95952 12.3641C5.77198 12.1766 5.66663 11.9222 5.66663 11.657C5.66663 11.3918 5.77198 11.1374 5.95952 10.9499C6.14706 10.7624 6.40141 10.657 6.66663 10.657H16.2526Z" fill="#E2E8F0"/>
</svg>
