<svg width="25" height="24" viewBox="0 0 25 24" fill="none" xmlns="http://www.w3.org/2000/svg">
<path d="M16.3529 2H8.28294C6.70609 2.00185 5.19437 2.62914 4.07947 3.74424C2.96456 4.85933 2.33753 6.37115 2.33594 7.948L2.33594 16.018C2.33779 17.5948 2.96508 19.1066 4.08017 20.2215C5.19527 21.3364 6.70709 21.9634 8.28394 21.965H16.3539C17.9308 21.9631 19.4425 21.3359 20.5574 20.2208C21.6723 19.1057 22.2993 17.5938 22.3009 16.017V7.947C22.2991 6.37015 21.6718 4.85844 20.5567 3.74353C19.4416 2.62862 17.9298 2.00159 16.3529 2V2ZM20.2929 16.017C20.2929 16.5344 20.191 17.0468 19.993 17.5248C19.795 18.0028 19.5048 18.4371 19.1389 18.803C18.7731 19.1689 18.3387 19.4591 17.8607 19.6571C17.3827 19.8551 16.8703 19.957 16.3529 19.957H8.28294C7.23816 19.9567 6.23626 19.5415 5.49758 18.8026C4.75891 18.0638 4.34394 17.0618 4.34394 16.017V7.947C4.3442 6.90222 4.75943 5.90032 5.49829 5.16165C6.23715 4.42297 7.23916 4.008 8.28394 4.008H16.3539C17.3987 4.00827 18.4006 4.42349 19.1393 5.16235C19.878 5.90122 20.2929 6.90322 20.2929 7.948V16.018V16.017Z" fill="#E2E8F0"/>
<path d="M12.3179 6.819C10.9494 6.82112 9.63748 7.36579 8.66984 8.33361C7.70221 9.30143 7.1578 10.6134 7.15594 11.982C7.15753 13.3509 7.70197 14.6633 8.66985 15.6314C9.63772 16.5995 10.95 17.1441 12.3189 17.146C13.688 17.1444 15.0006 16.5998 15.9687 15.6317C16.9368 14.6637 17.4814 13.3511 17.4829 11.982C17.4808 10.6131 16.9359 9.30088 15.9676 8.33319C14.9994 7.3655 13.6869 6.82132 12.3179 6.82V6.819ZM12.3179 15.138C11.4812 15.138 10.6787 14.8056 10.087 14.2139C9.49535 13.6222 9.16294 12.8198 9.16294 11.983C9.16294 11.1462 9.49535 10.3438 10.087 9.75208C10.6787 9.1604 11.4812 8.828 12.3179 8.828C13.1547 8.828 13.9572 9.1604 14.5489 9.75208C15.1405 10.3438 15.4729 11.1462 15.4729 11.983C15.4729 12.8198 15.1405 13.6222 14.5489 14.2139C13.9572 14.8056 13.1547 15.138 12.3179 15.138Z" fill="#E2E8F0"/>
<path d="M17.4919 8.095C18.1751 8.095 18.7289 7.54118 18.7289 6.858C18.7289 6.17483 18.1751 5.621 17.4919 5.621C16.8088 5.621 16.2549 6.17483 16.2549 6.858C16.2549 7.54118 16.8088 8.095 17.4919 8.095Z" fill="#E2E8F0"/>
</svg>
