<svg width="25" height="24" viewBox="0 0 25 24" fill="none" xmlns="http://www.w3.org/2000/svg">
<path d="M18.1479 5.01699H6.48094C4.19094 5.01699 2.33594 6.85199 2.33594 9.11599V14.884C2.33594 17.148 4.19194 18.984 6.48094 18.984H18.1479C20.4379 18.984 22.2929 17.148 22.2929 14.884V9.11599C22.2929 6.85199 20.4369 5.01599 18.1479 5.01599V5.01699ZM15.3449 12.28L9.88794 14.855C9.85465 14.871 9.81786 14.8784 9.78097 14.8763C9.74408 14.8743 9.70831 14.863 9.67697 14.8434C9.64563 14.8239 9.61975 14.7967 9.60174 14.7645C9.58372 14.7322 9.57416 14.6959 9.57394 14.659V9.34999C9.5746 9.31286 9.58466 9.27651 9.60316 9.24432C9.62166 9.21212 9.64801 9.18513 9.67976 9.16587C9.7115 9.1466 9.74761 9.13568 9.78471 9.13413C9.82181 9.13258 9.8587 9.14044 9.89194 9.15699L15.3499 11.892C15.3863 11.9101 15.4168 11.9381 15.4379 11.9728C15.4591 12.0075 15.47 12.0474 15.4695 12.0881C15.469 12.1287 15.457 12.1683 15.435 12.2025C15.413 12.2366 15.3817 12.2638 15.3449 12.281V12.28Z" fill="#E2E8F0"/>
</svg>
